<svg version="1.1" xmlns="http://www.w3.org/2000/svg" viewBox="0 0 1368.3904564976 674.9550464463233" width="1368.3904564976" height="674.9550464463233">
    <!-- svg-source:excalidraw -->
    
    <defs>
      <style class="style-fonts">
        @font-face {
          font-family: "Virgil";
          src: url("https://excalidraw.com/Virgil.woff2");
        }
        @font-face {
          font-family: "Cascadia";
          src: url("https://excalidraw.com/Cascadia.woff2");
        }
        @font-face {
          font-family: "Assistant";
          src: url("https://excalidraw.com/Assistant-Regular.woff2");
        }
      </style>
      
    </defs>
    <rect x="0" y="0" width="1368.3904564976" height="674.9550464463233" fill="#ffffff"></rect><g stroke-linecap="round" transform="translate(10.776517845659782 57.41565349474604) rotate(359.57974716091474 119.77306132823452 106.30789191198096)"><path d="M32 0 C94.76 -0.4, 159.24 -0.33, 207.55 0 M32 0 C77.03 -0.11, 122.85 0.88, 207.55 0 M207.55 0 C227.46 -0.27, 240.68 10.41, 239.55 32 M207.55 0 C230.02 1.99, 238.19 9.39, 239.55 32 M239.55 32 C241.32 62.93, 241.79 93.12, 239.55 180.62 M239.55 32 C238.74 76.25, 237.81 120.77, 239.55 180.62 M239.55 180.62 C238.45 200.92, 229.66 214.52, 207.55 212.62 M239.55 180.62 C238.02 201.73, 230.45 211.7, 207.55 212.62 M207.55 212.62 C148.04 213.52, 90.09 212.72, 32 212.62 M207.55 212.62 C150.77 210.52, 95.14 210.6, 32 212.62 M32 212.62 C12.61 213.8, 0.21 201.74, 0 180.62 M32 212.62 C12.28 212.59, -0.22 199.87, 0 180.62 M0 180.62 C-1.91 127.96, 1.24 79.19, 0 32 M0 180.62 C-1.1 131.59, -1.27 82.16, 0 32 M0 32 C1.67 8.76, 9.96 1.17, 32 0 M0 32 C-2.2 11.7, 9.76 0.36, 32 0" stroke="#1e1e1e" stroke-width="2" fill="none"></path></g><g transform="translate(93.4979434317068 62.41565349474604) rotate(359.57974716091474 37.05163574218753 12.84613439311218)"><text x="37.0516357421875" y="18.005141965386027" font-family="Virgil, Segoe UI Emoji" font-size="20.553815028979482px" fill="#1e1e1e" text-anchor="middle" style="white-space: pre;" direction="ltr" dominant-baseline="alphabetic">Mapping</text></g><g transform="translate(288.73848252539324 95.67552499503824) rotate(0 81.01992797851562 37.5)"><text x="81.01992797851562" y="17.52" font-family="Virgil, Segoe UI Emoji" font-size="20px" fill="#e03131" text-anchor="middle" style="white-space: pre;" direction="ltr" dominant-baseline="alphabetic">`map.pgm`</text><text x="81.01992797851562" y="42.519999999999996" font-family="Virgil, Segoe UI Emoji" font-size="20px" fill="#e03131" text-anchor="middle" style="white-space: pre;" direction="ltr" dominant-baseline="alphabetic">(Convert .pcd to</text><text x="81.01992797851562" y="67.52" font-family="Virgil, Segoe UI Emoji" font-size="20px" fill="#e03131" text-anchor="middle" style="white-space: pre;" direction="ltr" dominant-baseline="alphabetic">.pgm if needed)</text></g><g stroke-linecap="round" transform="translate(36.203027881296066 100.41632564065458) rotate(0 97.99998474121088 74.99996948242188)"><path d="M32 0 C64.02 -4.17, 96.48 -3.92, 164 0 C186.67 -2.62, 198.18 9.74, 196 32 C198.99 50.07, 198.01 71.2, 196 118 C193.55 140.1, 183.83 147.52, 164 150 C127.03 148.63, 83.68 146.38, 32 150 C10.45 152.86, 1.92 136.25, 0 118 C-1.31 86.15, -1.25 55.01, 0 32 C1.39 13.46, 11.79 2.26, 32 0" stroke="none" stroke-width="0" fill="#ffc9c9"></path><path d="M32 0 C70.64 2.44, 111.56 2.18, 164 0 M32 0 C77.18 0, 120.34 -1.31, 164 0 M164 0 C184.53 -1.21, 194.45 10.02, 196 32 M164 0 C183.49 1.44, 197.9 10.49, 196 32 M196 32 C196.02 56.35, 194.11 80.34, 196 118 M196 32 C196.43 58.68, 195.63 87.05, 196 118 M196 118 C196.28 138.02, 185.24 148.2, 164 150 M196 118 C196.69 139.06, 185.7 150.94, 164 150 M164 150 C113.12 149.51, 61.63 149.63, 32 150 M164 150 C137.97 149.09, 109.89 148.54, 32 150 M32 150 C9.29 148.53, 0.59 139.32, 0 118 M32 150 C10.57 147.78, -0.75 140.39, 0 118 M0 118 C0.28 99.51, 0.86 78.31, 0 32 M0 118 C-0.09 86.13, 0.08 52.98, 0 32 M0 32 C0.16 11.13, 12.22 1.64, 32 0 M0 32 C-0.33 9.24, 10.07 -0.84, 32 0" stroke="#1e1e1e" stroke-width="2" fill="none"></path></g><g transform="translate(56.06308189740935 112.91629512307645) rotate(0 78.13993072509766 62.5)"><text x="78.13993072509766" y="17.52" font-family="Virgil, Segoe UI Emoji" font-size="20px" fill="#1e1e1e" text-anchor="middle" style="white-space: pre;" direction="ltr" dominant-baseline="alphabetic">1. Fast-Lio</text><text x="78.13993072509766" y="42.519999999999996" font-family="Virgil, Segoe UI Emoji" font-size="20px" fill="#1e1e1e" text-anchor="middle" style="white-space: pre;" direction="ltr" dominant-baseline="alphabetic">2. gmapping</text><text x="78.13993072509766" y="67.52" font-family="Virgil, Segoe UI Emoji" font-size="20px" fill="#1e1e1e" text-anchor="middle" style="white-space: pre;" direction="ltr" dominant-baseline="alphabetic">3. A-LOAM</text><text x="78.13993072509766" y="92.52" font-family="Virgil, Segoe UI Emoji" font-size="20px" fill="#1e1e1e" text-anchor="middle" style="white-space: pre;" direction="ltr" dominant-baseline="alphabetic">4. F-LOAM</text><text x="78.13993072509766" y="117.52" font-family="Virgil, Segoe UI Emoji" font-size="20px" fill="#1e1e1e" text-anchor="middle" style="white-space: pre;" direction="ltr" dominant-baseline="alphabetic">5. Cartographer</text></g><g stroke-linecap="round"><g transform="translate(254.2030583988742 173.96284206386963) rotate(0 126.65763908841672 7.184311197308773)"><path d="M0.87 0.04 C43.15 2.24, 210.76 11.63, 252.95 13.84 M-0.13 -0.98 C42.01 1.32, 209.52 12.59, 251.8 15.1" stroke="#1e1e1e" stroke-width="2" fill="none"></path></g><g transform="translate(254.2030583988742 173.96284206386963) rotate(0 126.65763908841672 7.184311197308773)"><path d="M227.82 22.14 C233.63 19.65, 238.46 19.69, 251.8 15.1 M227.82 22.14 C233.3 20.58, 237.8 20.13, 251.8 15.1" stroke="#1e1e1e" stroke-width="2" fill="none"></path></g><g transform="translate(254.2030583988742 173.96284206386963) rotate(0 126.65763908841672 7.184311197308773)"><path d="M228.9 5.07 C234.54 6.71, 239.11 10.85, 251.8 15.1 M228.9 5.07 C234.12 7.13, 238.4 10.3, 251.8 15.1" stroke="#1e1e1e" stroke-width="2" fill="none"></path></g></g><mask></mask><g stroke-linecap="round" transform="translate(471.38154464877664 124.1977760089294) rotate(359.57974716091474 98.28674699361875 50.43509061701104)"><path d="M25.22 0 C83.57 -1.87, 136.55 -1.94, 171.36 0 M25.22 0 C61 -0.07, 98.43 0.07, 171.36 0 M171.36 0 C187.29 -0.3, 197.59 7.62, 196.57 25.22 M171.36 0 C189.76 0.82, 197.74 8.21, 196.57 25.22 M196.57 25.22 C197.43 37.71, 195.04 52.48, 196.57 75.65 M196.57 25.22 C196.88 40.44, 195.91 56.78, 196.57 75.65 M196.57 75.65 C196.68 93.25, 188.72 100.67, 171.36 100.87 M196.57 75.65 C197.4 94.13, 188.34 98.62, 171.36 100.87 M171.36 100.87 C116.68 100.7, 65.75 103.49, 25.22 100.87 M171.36 100.87 C118.65 102.02, 66.75 102.38, 25.22 100.87 M25.22 100.87 C8.68 101.43, 0.69 94.02, 0 75.65 M25.22 100.87 C7.43 101.49, -0.78 91.51, 0 75.65 M0 75.65 C0.54 62.71, 1.28 44.98, 0 25.22 M0 75.65 C0.59 56.59, -0.89 39.16, 0 25.22 M0 25.22 C1.54 7.9, 7.26 1.34, 25.22 0 M0 25.22 C0.87 6.29, 8.88 1.76, 25.22 0" stroke="#1e1e1e" stroke-width="2" fill="none"></path></g><g stroke-linecap="round" transform="translate(517.4862746301474 168.62753510092784) rotate(0 51.33331807454414 19.65608473516727)"><path d="M9.83 0 C28.72 0.4, 48.33 -1.2, 92.84 0 C99.07 1.3, 100.54 4.16, 102.67 9.83 C104.83 16.99, 101.31 24.67, 102.67 29.48 C100.59 38.54, 98.07 38.49, 92.84 39.31 C74.77 39.42, 49.98 41.61, 9.83 39.31 C1.92 39.49, 1.86 33.37, 0 29.48 C2.31 19.9, -1.63 11.92, 0 9.83 C-1.07 2.08, 6.82 3.12, 9.83 0" stroke="none" stroke-width="0" fill="#ffc9c9"></path><path d="M9.83 0 C30.24 1.83, 52.95 -0.65, 92.84 0 M9.83 0 C35.2 -0.35, 61.95 -0.59, 92.84 0 M92.84 0 C100.77 0.71, 103.68 3.1, 102.67 9.83 M92.84 0 C98.75 -0.27, 101.88 4.33, 102.67 9.83 M102.67 9.83 C102.79 15.21, 102.41 19.47, 102.67 29.48 M102.67 9.83 C102.55 14.97, 102.77 19.24, 102.67 29.48 M102.67 29.48 C103.39 37.48, 99.54 37.35, 92.84 39.31 M102.67 29.48 C104.09 35.29, 101.29 37.28, 92.84 39.31 M92.84 39.31 C74.84 39.54, 55.41 39.53, 9.83 39.31 M92.84 39.31 C64.32 40.27, 35.88 40.77, 9.83 39.31 M9.83 39.31 C2.42 39.85, -0.68 35.21, 0 29.48 M9.83 39.31 C3.12 37.47, -1.39 36.19, 0 29.48 M0 29.48 C1.19 22.1, -0.17 15.38, 0 9.83 M0 29.48 C0.91 24.64, -0.4 20.94, 0 9.83 M0 9.83 C0.76 1.43, 3.69 1.53, 9.83 0 M0 9.83 C-2.2 3.56, 5.05 2.18, 9.83 0" stroke="#1e1e1e" stroke-width="2" fill="none"></path></g><g transform="translate(544.994504203715 177.1063684814319) rotate(0 23.825088500976562 11.177251354663213)"><text x="23.825088500976562" y="15.666035498695967" font-family="Virgil, Segoe UI Emoji" font-size="17.88360216746115px" fill="#1e1e1e" text-anchor="middle" style="white-space: pre;" direction="ltr" dominant-baseline="alphabetic">AMCL</text></g><g transform="translate(505.20454697851847 136.74953012199154) rotate(359.57974716091474 58.479949951171875 12.5)"><text x="58.479949951171875" y="17.52" font-family="Virgil, Segoe UI Emoji" font-size="20px" fill="#1e1e1e" text-anchor="middle" style="white-space: pre;" direction="ltr" dominant-baseline="alphabetic">Localization</text></g><g stroke-linecap="round" transform="translate(449.94295273266187 427.6782030507841) rotate(359.57974716091474 128.6426951853881 106.30789191198096)"><path d="M32 0 C87.37 2.46, 141.33 -0.21, 225.29 0 M32 0 C103.13 -0.37, 174.15 1.18, 225.29 0 M225.29 0 C246.1 1.77, 256.96 8.69, 257.29 32 M225.29 0 C248.76 -1.16, 255.89 10.64, 257.29 32 M257.29 32 C258.53 70.04, 257.84 107.69, 257.29 180.62 M257.29 32 C257.61 61.65, 259.13 92.48, 257.29 180.62 M257.29 180.62 C256.76 203.83, 248.62 212.05, 225.29 212.62 M257.29 180.62 C258.66 203.42, 248.06 211.3, 225.29 212.62 M225.29 212.62 C164.71 211.3, 106.97 211.08, 32 212.62 M225.29 212.62 C176.44 213.56, 126.41 212.31, 32 212.62 M32 212.62 C9.83 211.15, 0.16 202.02, 0 180.62 M32 212.62 C12.38 214.57, -0.66 202.34, 0 180.62 M0 180.62 C0.21 121.5, 0.34 66.4, 0 32 M0 180.62 C0.35 135.91, -0.53 91.27, 0 32 M0 32 C1.22 10.24, 8.67 1.69, 32 0 M0 32 C-1.56 9.54, 10.77 -0.75, 32 0" stroke="#1e1e1e" stroke-width="2" fill="none"></path></g><g transform="translate(494.36572299129216 432.6782030507841) rotate(359.57974716091474 84.21992492675781 12.5)"><text x="84.21992492675781" y="17.52" font-family="Virgil, Segoe UI Emoji" font-size="20px" fill="#1e1e1e" text-anchor="middle" style="white-space: pre;" direction="ltr" dominant-baseline="alphabetic">Object Detection</text></g><g stroke-linecap="round" transform="translate(469.97293408885264 467.3576526565763) rotate(0 107.99998474121094 74.99996948242188)"><path d="M32 0 C63.07 -0.58, 92.37 -5.87, 184 0 C204.16 -3.42, 219.29 9.27, 216 32 C215.05 67.6, 217.1 95.33, 216 118 C214.01 139.55, 202.61 151.55, 184 150 C144.15 153.19, 94.8 151.01, 32 150 C10.09 149.64, 2.1 142.08, 0 118 C2.41 93.34, 0.92 62.93, 0 32 C-0.9 11.05, 7.14 1.42, 32 0" stroke="none" stroke-width="0" fill="#ffc9c9"></path><path d="M32 0 C88.55 -0.27, 141.86 0.55, 184 0 M32 0 C64.79 -0.21, 97.94 -2.09, 184 0 M184 0 C207.19 -1.01, 214.79 10.65, 216 32 M184 0 C204.22 -0.99, 216.71 12.82, 216 32 M216 32 C214.59 61.98, 218.41 87.51, 216 118 M216 32 C216.39 53.36, 217.65 72.55, 216 118 M216 118 C217.19 140.61, 206.59 148.86, 184 150 M216 118 C216.09 137.67, 204.03 147.86, 184 150 M184 150 C139.2 148.81, 96.39 150.95, 32 150 M184 150 C127.08 148.45, 71.09 149.22, 32 150 M32 150 C12.16 151.7, -0.58 139.67, 0 118 M32 150 C12.72 150.01, 1.83 139.58, 0 118 M0 118 C-0.14 97.89, -0.73 78.41, 0 32 M0 118 C0.97 92.78, -0.64 68.84, 0 32 M0 32 C-1.36 9.68, 10.75 -0.65, 32 0 M0 32 C0.84 12.62, 8.42 0.8, 32 0" stroke="#1e1e1e" stroke-width="2" fill="none"></path></g><g transform="translate(475.5229981757667 504.8576221389982) rotate(0 102.44992065429688 37.5)"><text x="102.44992065429688" y="17.52" font-family="Virgil, Segoe UI Emoji" font-size="20px" fill="#1e1e1e" text-anchor="middle" style="white-space: pre;" direction="ltr" dominant-baseline="alphabetic">1. Template Matching</text><text x="102.44992065429688" y="42.519999999999996" font-family="Virgil, Segoe UI Emoji" font-size="20px" fill="#1e1e1e" text-anchor="middle" style="white-space: pre;" direction="ltr" dominant-baseline="alphabetic">2. Find_object_2d </text><text x="102.44992065429688" y="67.52" font-family="Virgil, Segoe UI Emoji" font-size="20px" fill="#1e1e1e" text-anchor="middle" style="white-space: pre;" direction="ltr" dominant-baseline="alphabetic">(SIFT or ORB)</text></g><g stroke-linecap="round" transform="translate(1045.3853589772607 87.78064002047199) rotate(359.57974716091474 156.24869658920397 69.79225617952318)"><path d="M32 0 C115.39 -1.97, 200.27 -0.17, 280.5 0 M32 0 C103.34 -1.76, 173.55 -1.19, 280.5 0 M280.5 0 C302.14 0.68, 312.66 12.19, 312.5 32 M280.5 0 C301.23 1.47, 314.37 9.68, 312.5 32 M312.5 32 C313.21 49.21, 310.86 64.64, 312.5 107.58 M312.5 32 C312.14 59.4, 312.41 86.94, 312.5 107.58 M312.5 107.58 C311.78 129.71, 300.61 137.77, 280.5 139.58 M312.5 107.58 C311.94 131.2, 300.51 140.54, 280.5 139.58 M280.5 139.58 C219.88 139.06, 161.36 136.82, 32 139.58 M280.5 139.58 C220.81 140.02, 162.79 140.49, 32 139.58 M32 139.58 C9.16 139.33, -0.45 129.7, 0 107.58 M32 139.58 C11.19 138.09, 2.23 129.14, 0 107.58 M0 107.58 C-2.37 77.86, -2.1 49.14, 0 32 M0 107.58 C0.04 79.92, -0.27 54.57, 0 32 M0 32 C-0.3 9.21, 11.69 1.46, 32 0 M0 32 C0.86 12.51, 11.09 0.39, 32 0" stroke="#1e1e1e" stroke-width="2" fill="none"></path></g><g transform="translate(1166.8640894409764 92.78064002047199) rotate(359.57974716091474 34.76996612548828 12.5)"><text x="34.76996612548828" y="17.52" font-family="Virgil, Segoe UI Emoji" font-size="20px" fill="#1e1e1e" text-anchor="middle" style="white-space: pre;" direction="ltr" dominant-baseline="alphabetic">Control</text></g><g stroke-linecap="round" transform="translate(1067.4331425578198 128.53486581071786) rotate(0 135.0370330810547 42.5)"><path d="M21.25 0 C95.55 -5.52, 173.32 -4.55, 248.82 0 C263.56 -2.32, 267.42 9.03, 270.07 21.25 C270.26 33.91, 268.71 43.07, 270.07 63.75 C267.39 78.33, 263.15 81.95, 248.82 85 C186.85 85.61, 123.24 82.98, 21.25 85 C7.3 84.96, -0.57 76.75, 0 63.75 C1.86 49.81, 1.55 34.76, 0 21.25 C-0.09 7.49, 6.9 -2.74, 21.25 0" stroke="none" stroke-width="0" fill="#ffc9c9"></path><path d="M21.25 0 C67.53 -0.86, 115.27 1.19, 248.82 0 M21.25 0 C71.48 0.5, 121.51 0.86, 248.82 0 M248.82 0 C262.47 1.28, 271.7 6.22, 270.07 21.25 M248.82 0 C261.23 0.13, 268.59 7.85, 270.07 21.25 M270.07 21.25 C271.04 34.59, 267.92 47.48, 270.07 63.75 M270.07 21.25 C269.69 33.33, 269.44 43.7, 270.07 63.75 M270.07 63.75 C269.59 79.9, 261.84 85.83, 248.82 85 M270.07 63.75 C268.65 76.82, 260.95 83.01, 248.82 85 M248.82 85 C161.75 82.35, 77.27 82.5, 21.25 85 M248.82 85 C183.3 85.73, 118.87 86.17, 21.25 85 M21.25 85 C7.54 83.7, 1.94 78.11, 0 63.75 M21.25 85 C8.78 86.78, 1.9 75.86, 0 63.75 M0 63.75 C1.42 54.54, 1.2 44.88, 0 21.25 M0 63.75 C-0.11 53.83, 0.56 46.09, 0 21.25 M0 21.25 C0.75 8.68, 7.45 0.34, 21.25 0 M0 21.25 C-2.05 5.37, 9.24 -2.26, 21.25 0" stroke="#1e1e1e" stroke-width="2" fill="none"></path></g><g transform="translate(1076.5102604777417 146.03486581071786) rotate(0 125.95991516113281 25)"><text x="125.95991516113281" y="17.52" font-family="Virgil, Segoe UI Emoji" font-size="20px" fill="#1e1e1e" text-anchor="middle" style="white-space: pre;" direction="ltr" dominant-baseline="alphabetic">1. Publish the goal pose</text><text x="125.95991516113281" y="42.519999999999996" font-family="Virgil, Segoe UI Emoji" font-size="20px" fill="#1e1e1e" text-anchor="middle" style="white-space: pre;" direction="ltr" dominant-baseline="alphabetic">2. Navigate in RViz Panel</text></g><g stroke-linecap="round" transform="translate(692.05956114399 49.70084095523612) rotate(359.57974716091474 119.77306132823446 106.30789191198096)"><path d="M32 0 C70.32 1.39, 110.59 -0.7, 207.55 0 M32 0 C100.04 -0.23, 168.2 -1.35, 207.55 0 M207.55 0 C227.24 0.44, 239.47 12.31, 239.55 32 M207.55 0 C231.12 1.18, 238.08 9.46, 239.55 32 M239.55 32 C241.34 68.4, 237.96 105.56, 239.55 180.62 M239.55 32 C238.7 76.8, 238.78 122.83, 239.55 180.62 M239.55 180.62 C241.43 202.97, 229.56 211.38, 207.55 212.62 M239.55 180.62 C237.65 200.7, 227.11 212.64, 207.55 212.62 M207.55 212.62 C163.11 211.6, 122.9 213.92, 32 212.62 M207.55 212.62 C158.58 213.47, 111.65 213.4, 32 212.62 M32 212.62 C9.71 212.69, -1.12 200.65, 0 180.62 M32 212.62 C11.34 211.66, -1.89 200.65, 0 180.62 M0 180.62 C-1.07 131.08, -1.09 79.34, 0 32 M0 180.62 C0.85 126.17, 0.59 70.94, 0 32 M0 32 C-1.45 8.69, 11.92 -0.24, 32 0 M0 32 C0.62 11.71, 9.05 -1.98, 32 0" stroke="#1e1e1e" stroke-width="2" fill="none"></path></g><g transform="translate(760.1905021108963 54.70084095523612) rotate(359.57974716091474 51.642120361328125 12.84613439311218)"><text x="51.642120361328125" y="18.005141965386027" font-family="Virgil, Segoe UI Emoji" font-size="20.553815028979482px" fill="#1e1e1e" text-anchor="middle" style="white-space: pre;" direction="ltr" dominant-baseline="alphabetic">Navigation</text></g><g stroke-linecap="round" transform="translate(722.671211153585 100.10894311416541) rotate(0 97.2592213948567 29.247868063990154)"><path d="M14.62 0 C68.48 -4.8, 120.88 -3.12, 179.89 0 C188.92 0.81, 195.97 3.61, 194.52 14.62 C196.13 23.99, 195.42 25.76, 194.52 43.87 C194.89 53.06, 191.7 60.84, 179.89 58.5 C130.67 57.51, 76.08 57.08, 14.62 58.5 C3.34 59.2, 3.54 54.47, 0 43.87 C3.87 37.26, 2.9 26.4, 0 14.62 C3.44 3.76, 4.75 -3.54, 14.62 0" stroke="none" stroke-width="0" fill="#ffc9c9"></path><path d="M14.62 0 C80.68 -0.8, 144.51 0.53, 179.89 0 M14.62 0 C77.76 0.63, 142.49 1.23, 179.89 0 M179.89 0 C191.59 1.02, 193.24 3.83, 194.52 14.62 M179.89 0 C188.28 -0.16, 196.12 7.06, 194.52 14.62 M194.52 14.62 C194.43 22.98, 194.03 34.16, 194.52 43.87 M194.52 14.62 C195.52 21.71, 194.92 27.16, 194.52 43.87 M194.52 43.87 C192.87 52.54, 188.1 58.52, 179.89 58.5 M194.52 43.87 C193.27 52, 190.09 57, 179.89 58.5 M179.89 58.5 C140.98 57.74, 103.9 57.76, 14.62 58.5 M179.89 58.5 C127.67 58.64, 75.84 57.95, 14.62 58.5 M14.62 58.5 C5.46 57.67, -1.64 52.49, 0 43.87 M14.62 58.5 C5.86 57.34, -0.46 51.53, 0 43.87 M0 43.87 C1.61 32.62, 0.75 23.31, 0 14.62 M0 43.87 C-0.8 33.73, 0.55 25.44, 0 14.62 M0 14.62 C0.54 5.78, 3.47 -1.73, 14.62 0 M0 14.62 C0.23 3.01, 6.18 -1.09, 14.62 0" stroke="#1e1e1e" stroke-width="2" fill="none"></path></g><g transform="translate(731.0472996138714 116.95129631357554) rotate(0 88.88313293457031 12.405514864580027)"><text x="88.88313293457031" y="17.387569634195376" font-family="Virgil, Segoe UI Emoji" font-size="19.848823783328054px" fill="#1e1e1e" text-anchor="middle" style="white-space: pre;" direction="ltr" dominant-baseline="alphabetic">Global Planner: A*</text></g><g stroke-linecap="round" transform="translate(721.2400677440347 179.35346869862622) rotate(0 97.2592213948567 30)"><path d="M15 0 C58.58 0.39, 107.5 -1.71, 179.52 0 C191.4 2.25, 195.17 8.2, 194.52 15 C197.4 25.51, 197.21 26.8, 194.52 45 C196.49 53.8, 186.64 58.9, 179.52 60 C117.39 60.03, 52.8 59.83, 15 60 C6.22 58.64, 3.33 55.88, 0 45 C3.71 32.78, -0.72 20.56, 0 15 C1.63 7.25, 3.77 3.15, 15 0" stroke="none" stroke-width="0" fill="#ffc9c9"></path><path d="M15 0 C79.33 1.97, 142.85 -0.24, 179.52 0 M15 0 C62.08 0.57, 106.41 -0.08, 179.52 0 M179.52 0 C189.96 0.73, 192.96 6.81, 194.52 15 M179.52 0 C187.83 0.79, 195.08 5.49, 194.52 15 M194.52 15 C193.46 23.89, 195.1 31.25, 194.52 45 M194.52 15 C193.78 27.14, 194.77 39.14, 194.52 45 M194.52 45 C196.36 55.53, 187.75 60.33, 179.52 60 M194.52 45 C192.48 54.53, 187.43 58.16, 179.52 60 M179.52 60 C133.68 57.56, 88.37 58.52, 15 60 M179.52 60 C137.29 59.22, 95.19 59.58, 15 60 M15 60 C6.4 60.15, 1.44 55.54, 0 45 M15 60 C4.96 59.9, -1.7 55.83, 0 45 M0 45 C1.63 33.19, 0.71 23.08, 0 15 M0 45 C0.25 35.59, 1.19 26.93, 0 15 M0 15 C-1.32 4.98, 5.91 -1.36, 15 0 M0 15 C0.86 5.85, 6.76 0.57, 15 0" stroke="#1e1e1e" stroke-width="2" fill="none"></path></g><g transform="translate(727.3543840485594 196.9479538340462) rotate(0 91.14490509033203 12.405514864580027)"><text x="91.14490509033203" y="17.387569634195376" font-family="Virgil, Segoe UI Emoji" font-size="19.848823783328054px" fill="#1e1e1e" text-anchor="middle" style="white-space: pre;" direction="ltr" dominant-baseline="alphabetic">Local Planner: Teb</text></g><g stroke-linecap="round"><g transform="translate(228.86963690364848 107.97507477559844) rotate(0 242.28657938538345 -48.57581085040968)"><path d="M0.29 0.64 C34.74 -15.29, 127.07 -94.22, 207.85 -96.28 C288.63 -98.34, 439.01 -25.66, 484.99 -11.73 M-1.01 -0.07 C33.21 -16.28, 126.23 -96.24, 207.14 -97.95 C288.04 -99.65, 438.38 -24.61, 484.44 -10.29" stroke="#1e1e1e" stroke-width="2" fill="none"></path></g><g transform="translate(228.86963690364848 107.97507477559844) rotate(0 242.28657938538345 -48.57581085040968)"><path d="M459.45 -10.95 C470.45 -10.01, 480.78 -9.8, 484.44 -10.29 M459.45 -10.95 C466.56 -11.47, 475.09 -9.49, 484.44 -10.29" stroke="#1e1e1e" stroke-width="2" fill="none"></path></g><g transform="translate(228.86963690364848 107.97507477559844) rotate(0 242.28657938538345 -48.57581085040968)"><path d="M465.71 -26.86 C474.13 -19.57, 481.97 -13.03, 484.44 -10.29 M465.71 -26.86 C470.71 -22.34, 477.23 -15.27, 484.44 -10.29" stroke="#1e1e1e" stroke-width="2" fill="none"></path></g></g><mask></mask><g transform="translate(403.43530055924737 25.638385102460063) rotate(0 40.989959716796875 25)"><text x="40.989959716796875" y="17.52" font-family="Virgil, Segoe UI Emoji" font-size="20px" fill="#1e1e1e" text-anchor="middle" style="white-space: pre;" direction="ltr" dominant-baseline="alphabetic">Global</text><text x="40.989959716796875" y="42.519999999999996" font-family="Virgil, Segoe UI Emoji" font-size="20px" fill="#1e1e1e" text-anchor="middle" style="white-space: pre;" direction="ltr" dominant-baseline="alphabetic">Costmap</text></g><g stroke-linecap="round" transform="translate(20.33976919463248 424.25742485831256) rotate(359.57974716091474 128.6426951853881 119.87864341580809)"><path d="M32 0 C110.59 -1.49, 187.58 -1.95, 225.29 0 M32 0 C89.03 -0.65, 144.89 -0.5, 225.29 0 M225.29 0 C248.06 0.61, 256.11 10.3, 257.29 32 M225.29 0 C245.72 -1.19, 258.19 11.41, 257.29 32 M257.29 32 C258.92 93.81, 258.6 152.9, 257.29 207.76 M257.29 32 C258 92.9, 258.72 152.07, 257.29 207.76 M257.29 207.76 C257.61 231.06, 246.2 238.89, 225.29 239.76 M257.29 207.76 C259.08 229.14, 247.38 241.97, 225.29 239.76 M225.29 239.76 C180.05 242.22, 136.68 242.74, 32 239.76 M225.29 239.76 C179.91 242.32, 134.3 241.86, 32 239.76 M32 239.76 C12.1 241.06, 1.47 228.42, 0 207.76 M32 239.76 C12.41 238.35, 1.82 229.88, 0 207.76 M0 207.76 C-1.07 145.26, -1.26 81.79, 0 32 M0 207.76 C-0.99 170.07, -0.38 130.39, 0 32 M0 32 C-1.48 9.15, 9.92 -0.98, 32 0 M0 32 C2.29 10.39, 12.67 -2.1, 32 0" stroke="#1e1e1e" stroke-width="2" fill="none"></path></g><g transform="translate(97.76162392591903 429.25742485831256) rotate(359.57974716091474 51.22084045410156 12.846134393112152)"><text x="51.22084045410156" y="18.005141965386027" font-family="Virgil, Segoe UI Emoji" font-size="20.553815028979482px" fill="#1e1e1e" text-anchor="middle" style="white-space: pre;" direction="ltr" dominant-baseline="alphabetic">Perception</text></g><g stroke-linecap="round" transform="translate(49.18518206115084 478.89769987053614) rotate(0 99.85185919867615 23.739705682142073)"><path d="M11.87 0 C81.2 -3.7, 146.28 -0.32, 187.83 0 C193.78 -0.86, 202.71 4.84, 199.7 11.87 C203.28 20.16, 202.93 26.15, 199.7 35.61 C199.32 41.59, 194.88 49.5, 187.83 47.48 C132.32 43.54, 74.86 46.94, 11.87 47.48 C6.19 45.02, -1.11 46.35, 0 35.61 C3.65 30.77, -3.12 18.8, 0 11.87 C2.13 0.94, 4.22 2.98, 11.87 0" stroke="none" stroke-width="0" fill="#ffc9c9"></path><path d="M11.87 0 C62.57 -0.85, 114.79 1.65, 187.83 0 M11.87 0 C74.56 -0.86, 135.21 -1.35, 187.83 0 M187.83 0 C194.96 -1.03, 200.49 4.6, 199.7 11.87 M187.83 0 C196.81 2.02, 200.45 4.06, 199.7 11.87 M199.7 11.87 C200.55 21.53, 200.7 27.26, 199.7 35.61 M199.7 11.87 C199.91 21.25, 199.54 28.22, 199.7 35.61 M199.7 35.61 C201.27 43.56, 196.41 49.4, 187.83 47.48 M199.7 35.61 C198.16 42.29, 196.95 47.26, 187.83 47.48 M187.83 47.48 C120.99 50.79, 58.44 49.69, 11.87 47.48 M187.83 47.48 C120.08 48.9, 51.63 47.91, 11.87 47.48 M11.87 47.48 C5.47 46.26, 1.59 44.21, 0 35.61 M11.87 47.48 C5.34 48.51, -0.3 43.2, 0 35.61 M0 35.61 C-1.55 27.96, -0.22 18.24, 0 11.87 M0 35.61 C-0.74 25.51, -0.37 16.44, 0 11.87 M0 11.87 C1.99 3.72, 5.7 -1.83, 11.87 0 M0 11.87 C1.33 4.44, 2.61 -1.14, 11.87 0" stroke="#1e1e1e" stroke-width="2" fill="none"></path></g><g transform="translate(80.3559880982059 491.08047577186153) rotate(0 68.6810531616211 11.556929780816745)"><text x="68.6810531616211" y="16.198192780792713" font-family="Virgil, Segoe UI Emoji" font-size="18.49108764930675px" fill="#1e1e1e" text-anchor="middle" style="white-space: pre;" direction="ltr" dominant-baseline="alphabetic">HDL32E LiDAR</text></g><g stroke-linecap="round" transform="translate(49.77161456381225 541.9648777390414) rotate(0 99.85185919867615 22.489705682142073)"><path d="M11.24 0 C67.62 -2.52, 119.99 2.31, 188.46 0 C196.6 3.34, 198.78 0.51, 199.7 11.24 C201.79 15, 196.94 21.98, 199.7 33.73 C196.23 38.03, 194.64 43.1, 188.46 44.98 C141.82 48.4, 87.9 46.41, 11.24 44.98 C7.06 48.43, -2.78 40.19, 0 33.73 C-0.38 28.05, 2.07 18.09, 0 11.24 C0.8 2.11, 5.07 0.81, 11.24 0" stroke="none" stroke-width="0" fill="#ffc9c9"></path><path d="M11.24 0 C53.07 -3.07, 97.33 -2.6, 188.46 0 M11.24 0 C59.99 -0.01, 109.17 0.02, 188.46 0 M188.46 0 C196.02 0.18, 199.08 4.31, 199.7 11.24 M188.46 0 C194.71 1.36, 198.4 6.01, 199.7 11.24 M199.7 11.24 C198.92 20.73, 199.4 29.81, 199.7 33.73 M199.7 11.24 C199.17 17.98, 200.05 24.66, 199.7 33.73 M199.7 33.73 C200.24 41.12, 194.12 45.91, 188.46 44.98 M199.7 33.73 C201.9 42.12, 194.3 42.89, 188.46 44.98 M188.46 44.98 C124.12 45.39, 55.32 45.13, 11.24 44.98 M188.46 44.98 C150.17 44.35, 113.07 43.96, 11.24 44.98 M11.24 44.98 C3.37 44.9, 1.03 39.46, 0 33.73 M11.24 44.98 C1.6 45, 1.98 40.65, 0 33.73 M0 33.73 C-1.7 26.55, 1.07 17.89, 0 11.24 M0 33.73 C0.64 28, -0.23 21.74, 0 11.24 M0 11.24 C0.07 5.69, 2.86 -0.33, 11.24 0 M0 11.24 C-1.99 2.07, 5.71 0.95, 11.24 0" stroke="#1e1e1e" stroke-width="2" fill="none"></path></g><g transform="translate(92.85920679471496 552.8976536403668) rotate(0 56.76426696777344 11.556929780816745)"><text x="56.76426696777344" y="16.198192780792713" font-family="Virgil, Segoe UI Emoji" font-size="18.49108764930675px" fill="#1e1e1e" text-anchor="middle" style="white-space: pre;" direction="ltr" dominant-baseline="alphabetic">RGB camera</text></g><g stroke-linecap="round" transform="translate(48.752882704817125 601.3167182880867) rotate(0 99.85185919867615 22.073026299817855)"><path d="M11.04 0 C74.41 4.69, 138.03 3.26, 188.67 0 C193.73 3.23, 197.7 1.91, 199.7 11.04 C200.62 17.72, 201.27 25.79, 199.7 33.11 C200.9 41.51, 195.74 41.99, 188.67 44.15 C133.71 47.3, 77.9 43.33, 11.04 44.15 C2.55 44.05, -1.26 39.99, 0 33.11 C2.18 24.56, 3.52 16.83, 0 11.04 C-0.91 6.91, 0.19 1.48, 11.04 0" stroke="none" stroke-width="0" fill="#ffc9c9"></path><path d="M11.04 0 C74.23 -0.17, 142.33 -1.01, 188.67 0 M11.04 0 C75.13 1.86, 140.75 0.68, 188.67 0 M188.67 0 C194.68 -0.02, 199.77 2.35, 199.7 11.04 M188.67 0 C193.82 2.28, 197.56 3.86, 199.7 11.04 M199.7 11.04 C198.75 18.83, 198.07 23.81, 199.7 33.11 M199.7 11.04 C200.46 16.66, 199.84 20.72, 199.7 33.11 M199.7 33.11 C200.92 38.56, 196.07 46.14, 188.67 44.15 M199.7 33.11 C200.54 39.8, 194.14 42.41, 188.67 44.15 M188.67 44.15 C130.49 45.37, 73.7 43.22, 11.04 44.15 M188.67 44.15 C118.01 44.5, 48.51 45.17, 11.04 44.15 M11.04 44.15 C4.91 45.3, 1.48 40.19, 0 33.11 M11.04 44.15 C2.01 44.36, 2.14 42.64, 0 33.11 M0 33.11 C0.66 27.45, -0.15 23.08, 0 11.04 M0 33.11 C0.98 25.23, 0.34 16.56, 0 11.04 M0 11.04 C1.01 1.92, 3.77 -1.39, 11.04 0 M0 11.04 C-0.49 3.44, 3.44 2.06, 11.04 0" stroke="#1e1e1e" stroke-width="2" fill="none"></path></g><g transform="translate(80.82968697185265 611.8328148070879) rotate(0 67.77505493164062 11.556929780816745)"><text x="67.77505493164062" y="16.198192780792713" font-family="Virgil, Segoe UI Emoji" font-size="18.49108764930675px" fill="#1e1e1e" text-anchor="middle" style="white-space: pre;" direction="ltr" dominant-baseline="alphabetic">RGB-D camera</text></g><g stroke-linecap="round"><g transform="translate(252.22448818102805 566.6121105992635) rotate(0 108.03995998663828 -29.26829494335783)"><path d="M0.7 0.82 C36.69 -9.09, 181.21 -49.15, 216.95 -59.23 M-0.4 0.2 C35.43 -9.58, 180.13 -48.21, 216.46 -58.06" stroke="#1e1e1e" stroke-width="2" fill="none"></path></g><g transform="translate(252.22448818102805 566.6121105992635) rotate(0 108.03995998663828 -29.26829494335783)"><path d="M196 -43.7 C205.18 -47.87, 210.51 -56.33, 216.46 -58.06 M196 -43.7 C199.6 -47.04, 204.05 -49.83, 216.46 -58.06" stroke="#1e1e1e" stroke-width="2" fill="none"></path></g><g transform="translate(252.22448818102805 566.6121105992635) rotate(0 108.03995998663828 -29.26829494335783)"><path d="M191.56 -60.22 C202.48 -58.08, 209.51 -60.2, 216.46 -58.06 M191.56 -60.22 C196.22 -60.07, 201.59 -59.42, 216.46 -58.06" stroke="#1e1e1e" stroke-width="2" fill="none"></path></g></g><mask></mask><g stroke-linecap="round"><g transform="translate(252.30876208578513 626.7552302630788) rotate(0 107.91008964417472 -43.134090061542054)"><path d="M-0.97 -0.01 C35.16 -14.19, 180.37 -71.04, 216.67 -85.34 M0.73 -1.07 C36.77 -15.55, 180.2 -72.51, 216.18 -86.97" stroke="#1e1e1e" stroke-width="2" fill="none"></path></g><g transform="translate(252.30876208578513 626.7552302630788) rotate(0 107.91008964417472 -43.134090061542054)"><path d="M197.53 -70.32 C203.04 -73.65, 210.11 -78.3, 216.18 -86.97 M197.53 -70.32 C203.53 -76.44, 209.43 -81.25, 216.18 -86.97" stroke="#1e1e1e" stroke-width="2" fill="none"></path></g><g transform="translate(252.30876208578513 626.7552302630788) rotate(0 107.91008964417472 -43.134090061542054)"><path d="M191.19 -86.2 C198.53 -84.8, 207.47 -84.76, 216.18 -86.97 M191.19 -86.2 C199.5 -86.93, 207.57 -86.33, 216.18 -86.97" stroke="#1e1e1e" stroke-width="2" fill="none"></path></g></g><mask></mask><g stroke-linecap="round"><g transform="translate(78.88938258857513 476.4916444766849) rotate(0 15.32082629103121 -113.33335876464844)"><path d="M0.86 -0.83 C5.91 -38.69, 24.95 -189.95, 29.98 -227.58 M-0.15 1.35 C5.33 -36.35, 27.24 -188.76, 32.35 -226.52" stroke="#1e1e1e" stroke-width="2" fill="none"></path></g><g transform="translate(78.88938258857513 476.4916444766849) rotate(0 15.32082629103121 -113.33335876464844)"><path d="M37.55 -202.06 C34.85 -209.75, 33.3 -214.58, 32.35 -226.52 M37.55 -202.06 C36.77 -210.41, 34.63 -217.73, 32.35 -226.52" stroke="#1e1e1e" stroke-width="2" fill="none"></path></g><g transform="translate(78.88938258857513 476.4916444766849) rotate(0 15.32082629103121 -113.33335876464844)"><path d="M20.62 -204.44 C22.49 -211.6, 25.54 -215.79, 32.35 -226.52 M20.62 -204.44 C25.07 -212.13, 28.15 -218.71, 32.35 -226.52" stroke="#1e1e1e" stroke-width="2" fill="none"></path></g></g><mask></mask><g stroke-linecap="round" transform="translate(781.5547865657273 375.00349837595945) rotate(0 83.80946568080356 33.80950927734375)"><path d="M70.32 0.64 C82.35 -0.4, 98.54 0.96, 110.97 2.54 C123.4 4.11, 136.1 6.46, 144.9 10.07 C153.7 13.68, 160.2 19.02, 163.74 24.19 C167.29 29.35, 168.83 35.92, 166.16 41.08 C163.48 46.24, 156.1 51.33, 147.68 55.16 C139.26 58.98, 127.42 61.97, 115.65 64.03 C103.88 66.1, 89.71 67.81, 77.06 67.53 C64.41 67.24, 50.75 65.19, 39.75 62.32 C28.76 59.46, 17.58 54.95, 11.09 50.31 C4.59 45.67, 1.25 39.78, 0.8 34.49 C0.34 29.2, 2.95 23.26, 8.33 18.56 C13.72 13.86, 21.86 9.28, 33.11 6.27 C44.35 3.26, 67.59 1.34, 75.8 0.49 C84.01 -0.37, 82.11 0.79, 82.36 1.14 M45.1 3.36 C55.47 0.52, 71.17 -0.33, 83.79 -0.17 C96.4 -0.01, 109.52 1.88, 120.78 4.31 C132.05 6.75, 143.77 10.16, 151.38 14.43 C158.98 18.7, 164.45 24.75, 166.39 29.93 C168.34 35.1, 167.45 40.68, 163.06 45.47 C158.68 50.25, 149.98 55.21, 140.06 58.63 C130.14 62.05, 116.34 64.42, 103.54 65.98 C90.74 67.54, 75.86 69.21, 63.27 67.98 C50.69 66.75, 37.45 62.51, 28.04 58.62 C18.63 54.73, 11.29 49.18, 6.82 44.64 C2.34 40.1, 0.09 36.43, 1.19 31.36 C2.29 26.3, 6.38 18.93, 13.42 14.22 C20.47 9.52, 38.05 4.91, 43.46 3.13 C48.86 1.34, 45.09 3.01, 45.86 3.52" stroke="#1e1e1e" stroke-width="2" fill="none"></path></g><g transform="translate(812.1220607848417 396.40607437470396) rotate(0 53.479949951171875 12.5)"><text x="53.479949951171875" y="17.52" font-family="Virgil, Segoe UI Emoji" font-size="20px" fill="#1e1e1e" text-anchor="middle" style="white-space: pre;" direction="ltr" dominant-baseline="alphabetic">move_base</text></g><g stroke-linecap="round"><g transform="translate(252.0016440122729 135.25723939506304) rotate(0 272.20345405569475 126.02519037772481)"><path d="M0.56 -0.68 C91.58 41.19, 454.39 209.8, 545.04 251.83 M-0.61 1.57 C90.4 43.58, 453.71 211.42, 544.42 253.26" stroke="#1e1e1e" stroke-width="2" fill="none"></path></g><g transform="translate(252.0016440122729 135.25723939506304) rotate(0 272.20345405569475 126.02519037772481)"><path d="M519.51 251.17 C523.6 252.54, 529.6 251.94, 544.42 253.26 M519.51 251.17 C525.47 250.8, 531.41 251.59, 544.42 253.26" stroke="#1e1e1e" stroke-width="2" fill="none"></path></g><g transform="translate(252.0016440122729 135.25723939506304) rotate(0 272.20345405569475 126.02519037772481)"><path d="M526.67 235.65 C529.34 240.31, 533.84 242.96, 544.42 253.26 M526.67 235.65 C530.91 239.23, 535.01 243.99, 544.42 253.26" stroke="#1e1e1e" stroke-width="2" fill="none"></path></g></g><mask></mask><g stroke-linecap="round"><g transform="translate(592.1214648559271 211.1939019055353) rotate(0 119.26626755339879 82.92924888830049)"><path d="M-1.09 -0.87 C38.53 26.83, 197.32 138.75, 237.33 166.62 M0.54 1.29 C40.54 28.61, 199.76 137.73, 239.42 164.9" stroke="#1e1e1e" stroke-width="2" fill="none"></path></g><g transform="translate(592.1214648559271 211.1939019055353) rotate(0 119.26626755339879 82.92924888830049)"><path d="M215.21 158.68 C220.29 158.57, 229.51 163, 239.42 164.9 M215.21 158.68 C222.88 159.68, 231.21 162.94, 239.42 164.9" stroke="#1e1e1e" stroke-width="2" fill="none"></path></g><g transform="translate(592.1214648559271 211.1939019055353) rotate(0 119.26626755339879 82.92924888830049)"><path d="M224.87 144.57 C227.41 148.17, 234.04 156.38, 239.42 164.9 M224.87 144.57 C229.11 150.52, 234.11 158.65, 239.42 164.9" stroke="#1e1e1e" stroke-width="2" fill="none"></path></g></g><mask></mask><g mask="url(#mask-p2jGURtk9qyFQoI_th48o)" stroke-linecap="round"><g transform="translate(910.4743369648214 372.6706288959366) rotate(0 65.07540336507736 -98.23402899485527)"><path d="M0.38 0.52 C7.7 -12.15, 22.86 -43.87, 44.42 -76.82 C65.98 -109.76, 115.38 -177.33, 129.75 -197.15 M-0.87 -0.25 C6.23 -12.74, 21.86 -43.17, 43.47 -75.83 C65.08 -108.49, 114.16 -175.84, 128.77 -196.19" stroke="#1e1e1e" stroke-width="2" fill="none"></path></g><g transform="translate(910.4743369648214 372.6706288959366) rotate(0 65.07540336507736 -98.23402899485527)"><path d="M121.96 -172.14 C125.33 -180.45, 125.06 -189.42, 128.77 -196.19 M121.96 -172.14 C123.94 -178.1, 124.42 -184.35, 128.77 -196.19" stroke="#1e1e1e" stroke-width="2" fill="none"></path></g><g transform="translate(910.4743369648214 372.6706288959366) rotate(0 65.07540336507736 -98.23402899485527)"><path d="M108.09 -182.14 C116.18 -187.05, 120.7 -192.57, 128.77 -196.19 M108.09 -182.14 C113.48 -185.76, 117.33 -189.58, 128.77 -196.19" stroke="#1e1e1e" stroke-width="2" fill="none"></path></g></g><mask id="mask-p2jGURtk9qyFQoI_th48o"><rect x="0" y="0" fill="#fff" width="1140.625143694976" height="669.1386868856471"></rect><rect x="916.2582112919408" y="284.4081876198211" fill="#000" width="77.25993347167969" height="25" opacity="1"></rect></mask><g transform="translate(916.2582112919408 284.4081876198211) rotate(0 58.65360838830577 -10.052799171670927)"><text x="38.629966735839844" y="17.52" font-family="Virgil, Segoe UI Emoji" font-size="20px" fill="#1e1e1e" text-anchor="middle" style="white-space: pre;" direction="ltr" dominant-baseline="alphabetic">cmd_vel</text></g><g stroke-linecap="round"><g transform="translate(250.12625873369575 508.3368026449326) rotate(0 237.61908394949768 -134.7619192940848)"><path d="M-1.03 -1.12 C40.17 -22.24, 167.65 -81.36, 246.91 -125.92 C326.17 -170.48, 436.32 -244.68, 474.51 -268.49 M0.62 0.91 C41.72 -20.19, 166.69 -79.79, 246.09 -124.99 C325.49 -170.19, 438.58 -245.96, 477.02 -270.29" stroke="#1e1e1e" stroke-width="2" fill="none"></path></g><g transform="translate(250.12625873369575 508.3368026449326) rotate(0 237.61908394949768 -134.7619192940848)"><path d="M461.95 -250.34 C464.09 -255.28, 468.17 -262.39, 477.02 -270.29 M461.95 -250.34 C468.07 -257.78, 473.57 -265.51, 477.02 -270.29" stroke="#1e1e1e" stroke-width="2" fill="none"></path></g><g transform="translate(250.12625873369575 508.3368026449326) rotate(0 237.61908394949768 -134.7619192940848)"><path d="M452.66 -264.69 C457.45 -265.61, 464.08 -268.77, 477.02 -270.29 M452.66 -264.69 C462.46 -266.64, 471.56 -268.83, 477.02 -270.29" stroke="#1e1e1e" stroke-width="2" fill="none"></path></g></g><mask></mask><g stroke-linecap="round"><g transform="translate(232.98340159083864 212.14631192227637) rotate(0 243.80953107561373 79.04761178152904)"><path d="M-0.59 -0.28 C35.4 26.07, 135.51 157.38, 216.99 158.33 C298.47 159.28, 443.21 30.84, 488.3 5.42 M1.31 -1.47 C37.55 24.47, 138.02 154.99, 219.12 156.33 C300.21 157.67, 443.12 31.47, 487.89 6.58" stroke="#1e1e1e" stroke-width="2" fill="none"></path></g><g transform="translate(232.98340159083864 212.14631192227637) rotate(0 243.80953107561373 79.04761178152904)"><path d="M473.51 27.03 C478.63 17.27, 485.09 12.25, 487.89 6.58 M473.51 27.03 C478.36 21.8, 481.19 15.4, 487.89 6.58" stroke="#1e1e1e" stroke-width="2" fill="none"></path></g><g transform="translate(232.98340159083864 212.14631192227637) rotate(0 243.80953107561373 79.04761178152904)"><path d="M463.73 13.01 C472.7 8.77, 482.98 9.24, 487.89 6.58 M463.73 13.01 C471.26 11.63, 476.79 9.1, 487.89 6.58" stroke="#1e1e1e" stroke-width="2" fill="none"></path></g></g><mask></mask><g transform="translate(415.8029511513855 306.9082312163612) rotate(0 40.989959716796875 25)"><text x="40.989959716796875" y="17.52" font-family="Virgil, Segoe UI Emoji" font-size="20px" fill="#1e1e1e" text-anchor="middle" style="white-space: pre;" direction="ltr" dominant-baseline="alphabetic">Local</text><text x="40.989959716796875" y="42.519999999999996" font-family="Virgil, Segoe UI Emoji" font-size="20px" fill="#1e1e1e" text-anchor="middle" style="white-space: pre;" direction="ltr" dominant-baseline="alphabetic">Costmap</text></g><g stroke-linecap="round"><g transform="translate(703.168602193297 551.1960799982281) rotate(0 43.082607320603415 -65.980287731381)"><path d="M-0.21 -0.31 C8.42 -12.48, 36.53 -50.54, 50.75 -72.46 C64.97 -94.37, 79.18 -121.97, 85.11 -131.81 M-1.79 -1.51 C6.79 -14.06, 34.92 -52.63, 49.79 -74.12 C64.66 -95.6, 81.31 -120.47, 87.45 -130.41" stroke="#1e1e1e" stroke-width="2" fill="none"></path></g><g transform="translate(703.168602193297 551.1960799982281) rotate(0 43.082607320603415 -65.980287731381)"><path d="M81.93 -106.03 C82.47 -111.18, 85.61 -118.05, 87.45 -130.41 M81.93 -106.03 C83.06 -113.03, 84.61 -121.97, 87.45 -130.41" stroke="#1e1e1e" stroke-width="2" fill="none"></path></g><g transform="translate(703.168602193297 551.1960799982281) rotate(0 43.082607320603415 -65.980287731381)"><path d="M67.55 -115.28 C71.16 -118.46, 77.33 -123.38, 87.45 -130.41 M67.55 -115.28 C73.19 -119.45, 79.24 -125.5, 87.45 -130.41" stroke="#1e1e1e" stroke-width="2" fill="none"></path></g></g><mask></mask><g stroke-linecap="round" transform="translate(914.5069787312058 491.8895799531167) rotate(359.57974716091474 89.90516867436497 25.494943464694984)"><path d="M12.75 0 C59.13 2.26, 100.26 1.11, 167.06 0 M12.75 0 C71.62 -0.64, 129.51 -0.01, 167.06 0 M167.06 0 C176.18 -1.13, 179.82 3.74, 179.81 12.75 M167.06 0 C176.26 2.17, 181.02 6.15, 179.81 12.75 M179.81 12.75 C180.86 23.2, 180.59 31.89, 179.81 38.24 M179.81 12.75 C179.6 20, 180.36 25.87, 179.81 38.24 M179.81 38.24 C179.4 46.3, 175.12 51.88, 167.06 50.99 M179.81 38.24 C178.45 47.99, 173.77 51.24, 167.06 50.99 M167.06 50.99 C132.93 52.45, 97.04 51.61, 12.75 50.99 M167.06 50.99 C126.94 50.17, 87.07 49.54, 12.75 50.99 M12.75 50.99 C5.09 49.59, 1.38 45.71, 0 38.24 M12.75 50.99 C4.54 51.7, 1.61 48.7, 0 38.24 M0 38.24 C0.67 29.76, 0.84 20.14, 0 12.75 M0 38.24 C0.33 33.1, 0.74 28.05, 0 12.75 M0 12.75 C0.36 2.79, 5.18 0.21, 12.75 0 M0 12.75 C0.01 5.14, 5.11 -2.17, 12.75 0" stroke="#1e1e1e" stroke-width="2" fill="none"></path></g><g transform="translate(938.6221922664105 504.8845234178117) rotate(359.57974716091474 65.78995513916016 12.5)"><text x="65.78995513916016" y="17.52" font-family="Virgil, Segoe UI Emoji" font-size="20px" fill="#1e1e1e" text-anchor="middle" style="white-space: pre;" direction="ltr" dominant-baseline="alphabetic">Jackal Robot</text></g><g stroke-linecap="round"><g transform="translate(1187.129458064183 226.4320262079907) rotate(0 -68.42680430588427 132.06021705324554)"><path d="M0.46 -1.11 C-22.23 43.18, -113.56 220.73, -136.29 264.97 M-0.75 0.93 C-23.54 44.94, -114.37 219.15, -136.94 263.29" stroke="#1e1e1e" stroke-width="2" fill="none"></path></g><g transform="translate(1187.129458064183 226.4320262079907) rotate(0 -68.42680430588427 132.06021705324554)"><path d="M-133.75 238.49 C-136.66 246.57, -134.32 254.35, -136.94 263.29 M-133.75 238.49 C-134.72 245.42, -135.08 253.26, -136.94 263.29" stroke="#1e1e1e" stroke-width="2" fill="none"></path></g><g transform="translate(1187.129458064183 226.4320262079907) rotate(0 -68.42680430588427 132.06021705324554)"><path d="M-118.56 246.35 C-125.78 252.22, -127.81 257.75, -136.94 263.29 M-118.56 246.35 C-124.32 250.67, -129.5 256.02, -136.94 263.29" stroke="#1e1e1e" stroke-width="2" fill="none"></path></g></g><mask></mask><g stroke-linecap="round"><g transform="translate(907.2981368140128 523.7160581639778) rotate(0 -308.1097558300581 66.59608652619175)"><path d="M-0.16 -0.99 C-28.38 19.17, -66.65 97.71, -169.28 120.03 C-271.92 142.35, -541.4 130.66, -615.94 132.93 M-1.7 1.1 C-30.06 21.04, -67.61 96.33, -170.09 118.5 C-272.57 140.67, -542.17 131.97, -616.57 134.11" stroke="#1e1e1e" stroke-width="2" fill="none"></path></g><g transform="translate(907.2981368140128 523.7160581639778) rotate(0 -308.1097558300581 66.59608652619175)"><path d="M-593.08 125.54 C-601.95 128.56, -605.56 131.18, -616.57 134.11 M-593.08 125.54 C-599.07 128.57, -606.21 131.17, -616.57 134.11" stroke="#1e1e1e" stroke-width="2" fill="none"></path></g><g transform="translate(907.2981368140128 523.7160581639778) rotate(0 -308.1097558300581 66.59608652619175)"><path d="M-593.06 142.64 C-601.79 140.46, -605.41 137.88, -616.57 134.11 M-593.06 142.64 C-599.01 140.91, -606.15 138.75, -616.57 134.11" stroke="#1e1e1e" stroke-width="2" fill="none"></path></g></g><mask></mask><g transform="translate(376.7590854025717 622.1462683257361) rotate(0 10.509986877441406 12.5)"><text x="10.509986877441406" y="17.52" font-family="Virgil, Segoe UI Emoji" font-size="20px" fill="#1e1e1e" text-anchor="middle" style="white-space: pre;" direction="ltr" dominant-baseline="alphabetic">tf</text></g></svg>